<svg width="196" height="250" viewBox="0 0 196 250" fill="none" xmlns="http://www.w3.org/2000/svg">
<g id="Mask group">
<mask id="mask0_1106_4035" style="mask-type:alpha" maskUnits="userSpaceOnUse" x="0" y="0" width="197" height="250">
<rect id="Rectangle 401" y="0.760254" width="197" height="249.24" fill="#D9D9D9"/>
</mask>
<g mask="url(#mask0_1106_4035)">
<ellipse id="Ellipse 20" cx="142.502" cy="159.947" rx="125.69" ry="129.372" fill="#FDAC11" fill-opacity="0.7"/>
<path id="Ellipse 21" d="M270.16 154.035C270.197 155.109 270.222 156.187 270.234 157.267L269.693 157.274C269.699 157.812 269.702 158.351 269.702 158.891C269.702 159.431 269.699 159.97 269.693 160.508L270.234 160.514C270.222 161.595 270.197 162.673 270.16 163.747L269.618 163.729C269.581 164.803 269.531 165.875 269.469 166.943L270.01 166.974C269.948 168.053 269.873 169.129 269.785 170.202L269.245 170.158C269.158 171.229 269.059 172.296 268.947 173.36L269.486 173.416C269.373 174.492 269.247 175.563 269.11 176.631L268.572 176.562C268.435 177.627 268.285 178.688 268.124 179.745L268.659 179.827C268.496 180.896 268.32 181.961 268.132 183.021L267.599 182.927C267.411 183.984 267.212 185.037 267 186.085L267.531 186.192C267.318 187.252 267.091 188.308 266.853 189.358L266.325 189.239C266.088 190.285 265.839 191.328 265.578 192.365L266.103 192.497C265.839 193.545 265.563 194.589 265.275 195.627L264.753 195.482C264.466 196.517 264.168 197.546 263.857 198.57L264.376 198.727C264.062 199.761 263.737 200.79 263.4 201.814L262.885 201.644C262.549 202.664 262.202 203.678 261.843 204.686L262.353 204.867C261.991 205.885 261.617 206.898 261.231 207.904L260.725 207.71C260.341 208.712 259.945 209.708 259.538 210.698L260.039 210.904C259.629 211.903 259.206 212.896 258.773 213.883L258.277 213.665C257.845 214.648 257.402 215.624 256.948 216.594L257.439 216.823C256.981 217.801 256.512 218.773 256.031 219.737L255.546 219.496C255.068 220.457 254.579 221.411 254.078 222.358L254.557 222.611C254.053 223.566 253.538 224.513 253.012 225.454L252.539 225.189C252.015 226.126 251.48 227.056 250.935 227.978L251.401 228.253C250.852 229.183 250.292 230.104 249.721 231.018L249.262 230.731C248.693 231.642 248.114 232.545 247.525 233.44L247.977 233.738C247.384 234.639 246.78 235.533 246.166 236.418L245.721 236.109C245.109 236.991 244.488 237.865 243.856 238.731L244.293 239.051C243.657 239.922 243.011 240.785 242.355 241.64L241.926 241.31C241.272 242.162 240.609 243.005 239.935 243.839L240.357 244.179C239.68 245.019 238.993 245.85 238.296 246.672L237.883 246.322C237.189 247.14 236.485 247.95 235.772 248.751L236.177 249.112C235.46 249.917 234.734 250.714 233.998 251.501L233.602 251.131C232.869 251.915 232.127 252.69 231.376 253.455L231.762 253.835C231.007 254.604 230.243 255.364 229.47 256.115L229.093 255.726C228.322 256.473 227.543 257.211 226.755 257.939L227.123 258.337C226.331 259.069 225.531 259.79 224.722 260.502L224.364 260.095C223.558 260.804 222.743 261.503 221.921 262.191L222.268 262.607C221.442 263.298 220.607 263.98 219.764 264.651L219.426 264.227C218.587 264.895 217.739 265.553 216.883 266.2L217.209 266.632C216.35 267.282 215.482 267.921 214.607 268.55L214.291 268.109C213.419 268.735 212.54 269.35 211.653 269.954L211.957 270.402C211.067 271.008 210.168 271.603 209.263 272.187L208.969 271.732C208.067 272.314 207.158 272.884 206.242 273.443L206.524 273.905C205.604 274.466 204.678 275.016 203.743 275.554L203.473 275.084C202.544 275.62 201.607 276.144 200.664 276.656L200.922 277.132C199.976 277.646 199.022 278.148 198.062 278.639L197.816 278.156C196.861 278.644 195.899 279.12 194.931 279.584L195.165 280.072C194.194 280.537 193.216 280.991 192.232 281.432L192.01 280.938C191.032 281.376 190.048 281.803 189.057 282.217L189.266 282.717C188.273 283.132 187.273 283.535 186.267 283.926L186.071 283.421C185.072 283.809 184.068 284.184 183.057 284.547L183.24 285.057C182.227 285.421 181.208 285.773 180.183 286.112L180.013 285.597C178.996 285.934 177.974 286.257 176.946 286.568L177.102 287.086C176.072 287.398 175.036 287.697 173.995 287.983L173.852 287.461C172.819 287.744 171.782 288.015 170.739 288.273L170.869 288.798C169.824 289.057 168.774 289.302 167.719 289.534L167.603 289.005C166.558 289.235 165.507 289.452 164.453 289.656L164.556 290.188C163.499 290.392 162.438 290.583 161.372 290.761L161.283 290.227C160.228 290.403 159.168 290.566 158.104 290.715L158.179 291.252C157.114 291.401 156.044 291.538 154.971 291.661L154.909 291.123C153.846 291.245 152.78 291.353 151.709 291.448L151.757 291.988C150.686 292.083 149.611 292.165 148.532 292.233L148.498 291.692C147.43 291.76 146.359 291.814 145.285 291.855L145.305 292.396C144.231 292.437 143.154 292.464 142.073 292.477L142.066 291.936C141.528 291.943 140.989 291.946 140.45 291.946C139.91 291.946 139.371 291.943 138.833 291.936L138.826 292.477C137.745 292.464 136.668 292.437 135.594 292.396L135.614 291.855C134.54 291.814 133.469 291.76 132.401 291.692L132.367 292.233C131.288 292.165 130.213 292.083 129.142 291.988L129.19 291.448C128.12 291.353 127.053 291.245 125.99 291.123L125.928 291.661C124.855 291.538 123.785 291.401 122.72 291.252L122.795 290.715C121.731 290.566 120.671 290.403 119.616 290.227L119.527 290.761C118.461 290.583 117.4 290.392 116.343 290.188L116.446 289.656C115.392 289.452 114.341 289.235 113.296 289.005L113.18 289.534C112.125 289.302 111.075 289.057 110.03 288.798L110.16 288.272C109.118 288.015 108.08 287.744 107.047 287.46L106.904 287.983C105.863 287.697 104.827 287.398 103.797 287.086L103.953 286.568C102.925 286.257 101.903 285.934 100.886 285.597L100.716 286.112C99.6912 285.773 98.6722 285.421 97.6589 285.057L97.842 284.547C96.8315 284.184 95.8267 283.809 94.8278 283.421L94.6317 283.926C93.6261 283.535 92.6265 283.132 91.633 282.717L91.8419 282.217C90.8514 281.803 89.8669 281.376 88.8887 280.938L88.6672 281.432C87.6831 280.991 86.7053 280.537 85.7341 280.072L85.9682 279.584C85 279.12 84.0384 278.644 83.0834 278.156L82.8371 278.638C81.8768 278.148 80.9233 277.646 79.9768 277.132L80.2352 276.656C79.2919 276.144 78.3554 275.62 77.426 275.084L77.1556 275.554C76.2215 275.016 75.2946 274.466 74.3749 273.905L74.657 273.443C73.7406 272.884 72.8316 272.314 71.93 271.732L71.6365 272.187C70.7306 271.603 69.8323 271.008 68.9417 270.402L69.2465 269.954C68.3594 269.35 67.4799 268.735 66.6082 268.109L66.2924 268.549C65.4169 267.921 64.5493 267.282 63.6898 266.632L64.0164 266.2C63.1605 265.553 62.3125 264.895 61.4728 264.227L61.1356 264.651C60.2924 263.98 59.4574 263.298 58.6309 262.607L58.9785 262.191C58.1556 261.503 57.3412 260.804 56.5353 260.095L56.1776 260.502C55.3685 259.79 54.568 259.069 53.7763 258.337L54.1439 257.939C53.356 257.211 52.5768 256.473 51.8065 255.726L51.4293 256.115C50.6561 255.364 49.8918 254.604 49.1366 253.835L49.5232 253.455C48.772 252.69 48.0298 251.915 47.2969 251.131L46.9011 251.501C46.1654 250.713 45.439 249.917 44.722 249.112L45.1266 248.751C44.4137 247.95 43.7101 247.14 43.0161 246.321L42.6029 246.672C41.9063 245.85 41.2193 245.019 40.5421 244.179L40.9637 243.839C40.2905 243.005 39.6271 242.162 38.9736 241.31L38.5439 241.64C37.8878 240.785 37.2418 239.922 36.6058 239.051L37.0433 238.731C36.4115 237.865 35.7896 236.991 35.1779 236.109L34.7328 236.418C34.1188 235.533 33.5151 234.639 32.9217 233.738L33.3741 233.44C32.7849 232.545 32.206 231.642 31.6375 230.731L31.1781 231.018C30.6074 230.104 30.0473 229.183 29.4979 228.253L29.9641 227.978C29.4188 227.056 28.884 226.126 28.36 225.189L27.8873 225.454C27.3613 224.513 26.846 223.566 26.3418 222.611L26.8207 222.358C26.3205 221.411 25.8311 220.457 25.3527 219.496L24.8678 219.737C24.3875 218.773 23.9183 217.801 23.4603 216.823L23.9509 216.594C23.4968 215.624 23.0538 214.648 22.622 213.665L22.1261 213.883C21.6927 212.896 21.2705 211.903 20.8598 210.904L21.3608 210.698C20.9539 209.708 20.5582 208.712 20.174 207.71L19.6683 207.904C19.2826 206.897 18.9084 205.885 18.5459 204.867L19.0562 204.686C18.6972 203.677 18.3497 202.664 18.0139 201.644L17.4994 201.814C17.1623 200.79 16.8369 199.761 16.5234 198.727L17.0417 198.57C16.7314 197.546 16.4328 196.517 16.146 195.482L15.624 195.627C15.3362 194.589 15.0602 193.545 14.7963 192.497L15.3216 192.365C15.0605 191.328 14.8112 190.285 14.5739 189.238L14.0457 189.358C13.8076 188.308 13.5816 187.252 13.3677 186.192L13.8987 186.085C13.6872 185.037 13.4877 183.984 13.3003 182.927L12.767 183.021C12.579 181.961 12.4033 180.896 12.2398 179.827L12.7753 179.745C12.6136 178.688 12.4641 177.627 12.3268 176.562L11.7895 176.631C11.6519 175.563 11.5265 174.492 11.4136 173.416L11.9523 173.36C11.8405 172.296 11.741 171.229 11.6538 170.158L11.1139 170.202C11.0265 169.129 10.9515 168.053 10.8889 166.974L11.4297 166.943C11.3678 165.875 11.3181 164.803 11.2808 163.729L10.7394 163.747C10.7021 162.673 10.6772 161.595 10.6647 160.514L11.2063 160.508C11.2001 159.97 11.1969 159.431 11.1969 158.891C11.1969 158.351 11.2001 157.812 11.2063 157.274L10.6647 157.267C10.6772 156.187 10.7021 155.109 10.7394 154.034L11.2808 154.053C11.3181 152.979 11.3678 151.907 11.4297 150.839L10.8889 150.808C10.9515 149.729 11.0266 148.653 11.1139 147.58L11.6538 147.624C11.741 146.553 11.8406 145.486 11.9523 144.422L11.4136 144.366C11.5266 143.29 11.6519 142.218 11.7895 141.151L12.3268 141.22C12.4641 140.155 12.6136 139.094 12.7753 138.037L12.2398 137.955C12.4033 136.886 12.5791 135.821 12.767 134.76L13.3003 134.855C13.4877 133.798 13.6872 132.745 13.8987 131.697L13.3677 131.59C13.5816 130.53 13.8076 129.474 14.0457 128.424L14.574 128.543C14.8112 127.496 15.0605 126.454 15.3216 125.417L14.7963 125.285C15.0602 124.236 15.3362 123.193 15.624 122.155L16.146 122.299C16.4328 121.265 16.7314 120.236 17.0418 119.212L16.5234 119.055C16.8369 118.021 17.1623 116.992 17.4994 115.968L18.0139 116.138C18.3497 115.118 18.6972 114.104 19.0562 113.096L18.5459 112.914C18.9084 111.896 19.2826 110.884 19.6683 109.878L20.1741 110.072C20.5582 109.07 20.9539 108.074 21.3608 107.084L20.8598 106.878C21.2705 105.878 21.6927 104.886 22.1262 103.899L22.6221 104.117C23.0538 103.134 23.4968 102.158 23.9509 101.188L23.4603 100.959C23.9183 99.9805 24.3875 99.009 24.8678 98.0444L25.3527 98.2858C25.8311 97.325 26.3205 96.371 26.8207 95.4239L26.3418 95.1709C26.846 94.2163 27.3613 93.2686 27.8873 92.3282L28.3601 92.5926C28.8841 91.6558 29.4188 90.7263 29.9641 89.8041L29.4979 89.5284C30.0473 88.5993 30.6074 87.6776 31.1781 86.7636L31.6376 87.0505C32.206 86.14 32.7849 85.2371 33.3742 84.342L32.9217 84.0441C33.5151 83.1428 34.1188 82.2493 34.7328 81.3639L35.178 81.6725C35.7896 80.7905 36.4115 79.9164 37.0434 79.0506L36.6058 78.7312C37.2418 77.8598 37.8879 76.9966 38.5439 76.1418L38.9736 76.4716C39.6271 75.6201 40.2906 74.777 40.9637 73.9425L40.5421 73.6025C41.2193 72.763 41.9063 71.9321 42.6029 71.1101L43.0162 71.4604C43.7101 70.6415 44.4137 69.8314 45.1267 69.0304L44.7221 68.6703C45.439 67.8648 46.1655 67.0684 46.9012 66.2812L47.2969 66.6511C48.0298 65.8669 48.772 65.0919 49.5233 64.3264L49.1367 63.947C49.8918 63.1775 50.6561 62.4175 51.4293 61.6671L51.8066 62.0559C52.5768 61.3084 53.356 60.5706 54.1439 59.8425L53.7763 59.4447C54.568 58.7132 55.3685 57.9915 56.1776 57.2799L56.5353 57.6866C57.3412 56.9779 58.1557 56.2791 58.9785 55.5906L58.6309 55.1751C59.4574 54.4835 60.2924 53.8021 61.1356 53.1312L61.4729 53.555C62.3126 52.8869 63.1605 52.2291 64.0165 51.5819L63.6898 51.1499C64.5493 50.5 65.4169 49.8608 66.2924 49.2323L66.6083 49.6724C67.4799 49.0467 68.3594 48.4318 69.2466 47.8279L68.9418 47.3801C69.8324 46.7738 70.7307 46.1785 71.6365 45.5944L71.93 46.0496C72.8316 45.4683 73.7407 44.898 74.657 44.3391L74.375 43.8767C75.2946 43.3157 76.2216 42.7661 77.1557 42.2281L77.426 42.6974C78.3554 42.1621 79.2919 41.6382 80.2353 41.126L79.9768 40.65C80.9234 40.136 81.8769 39.6337 82.8371 39.1434L83.0835 39.6257C84.0384 39.1381 85.0001 38.6622 85.9682 38.1982L85.7341 37.7098C86.7054 37.2444 87.6831 36.791 88.6672 36.3498L88.8888 36.8441C89.867 36.4056 90.8514 35.9791 91.842 35.565L91.633 35.0652C92.6265 34.6499 93.6262 34.2468 94.6318 33.8562L94.8279 34.3611C95.8268 33.9731 96.8316 33.5975 97.8421 33.2344L97.659 32.7247C98.6722 32.3606 99.6913 32.0091 100.716 31.6703L100.886 32.1846C101.903 31.8484 102.926 31.5247 103.953 31.2138L103.797 30.6954C104.827 30.3837 105.863 30.0849 106.904 29.799L107.047 30.3214C108.08 30.0378 109.118 29.7671 110.16 29.5094L110.03 28.9835C111.075 28.7252 112.125 28.4799 113.18 28.2478L113.296 28.7768C114.342 28.5467 115.392 28.3297 116.446 28.1258L116.344 27.594C117.4 27.3897 118.461 27.1986 119.527 27.0209L119.616 27.5552C120.671 27.3791 121.731 27.2162 122.795 27.0666L122.72 26.5302C123.785 26.3804 124.855 26.244 125.928 26.1209L125.99 26.6591C127.053 26.5373 128.12 26.4288 129.19 26.3337L129.142 25.7941C130.213 25.699 131.288 25.6172 132.367 25.549L132.401 26.0896C133.469 26.0221 134.54 25.9679 135.614 25.9272L135.594 25.3859C136.668 25.3453 137.746 25.3181 138.826 25.3044L138.833 25.846C139.371 25.8393 139.91 25.8359 140.45 25.8359C140.989 25.8359 141.528 25.8393 142.066 25.846L142.073 25.3044C143.154 25.3181 144.231 25.3453 145.305 25.3859L145.285 25.9272C146.359 25.9679 147.43 26.0221 148.498 26.0896L148.532 25.549C149.611 25.6172 150.686 25.699 151.757 25.7941L151.709 26.3337C152.78 26.4288 153.846 26.5373 154.909 26.6591L154.971 26.121C156.044 26.244 157.114 26.3804 158.179 26.5302L158.104 27.0666C159.168 27.2162 160.228 27.3791 161.283 27.5552L161.372 27.0209C162.438 27.1986 163.499 27.3897 164.556 27.594L164.453 28.1258C165.507 28.3297 166.558 28.5468 167.603 28.7768L167.719 28.2478C168.774 28.4799 169.824 28.7252 170.869 28.9835L170.739 29.5094C171.782 29.7671 172.819 30.0378 173.852 30.3214L173.995 29.799C175.036 30.0849 176.072 30.3837 177.103 30.6954L176.946 31.2139C177.974 31.5247 178.996 31.8484 180.013 32.1846L180.183 31.6704C181.208 32.0091 182.227 32.3606 183.24 32.7247L183.057 33.2344C184.068 33.5975 185.072 33.9731 186.071 34.3611L186.267 33.8562C187.273 34.2468 188.273 34.6499 189.266 35.0653L189.057 35.565C190.048 35.9792 191.032 36.4056 192.01 36.8441L192.232 36.3498C193.216 36.791 194.194 37.2444 195.165 37.7098L194.931 38.1983C195.899 38.6622 196.861 39.1381 197.816 39.6258L198.062 39.1434C199.022 39.6338 199.976 40.136 200.922 40.65L200.664 41.126C201.607 41.6382 202.544 42.1621 203.473 42.6974L203.743 42.2281C204.678 42.7661 205.605 43.3157 206.524 43.8767L206.242 44.3391C207.158 44.898 208.068 45.4683 208.969 46.0497L209.263 45.5944C210.168 46.1785 211.067 46.7738 211.957 47.3801L211.653 47.8279C212.54 48.4318 213.419 49.0467 214.291 49.6724L214.607 49.2324C215.482 49.8608 216.35 50.5 217.209 51.1499L216.883 51.582C217.739 52.2291 218.587 52.8869 219.426 53.5551L219.764 53.1312C220.607 53.8021 221.442 54.4835 222.268 55.1752L221.921 55.5906C222.743 56.2791 223.558 56.9779 224.364 57.6867L224.722 57.2799C225.531 57.9915 226.331 58.7132 227.123 59.4447L226.755 59.8426C227.543 60.5706 228.322 61.3084 229.093 62.0559L229.47 61.6672C230.243 62.4175 231.007 63.1776 231.762 63.9471L231.376 64.3264C232.127 65.092 232.869 65.8669 233.602 66.6511L233.998 66.2812C234.734 67.0684 235.46 67.8648 236.177 68.6703L235.772 69.0305C236.485 69.8315 237.189 70.6415 237.883 71.4604L238.296 71.1102C238.993 71.9322 239.68 72.763 240.357 73.6025L239.935 73.9426C240.609 74.7771 241.272 75.6202 241.926 76.4717L242.355 76.1419C243.011 76.9966 243.657 77.8598 244.293 78.7313L243.856 79.0506C244.488 79.9165 245.11 80.7905 245.721 81.6726L246.166 81.3639C246.78 82.2494 247.384 83.1428 247.977 84.0442L247.525 84.342C248.114 85.2371 248.693 86.14 249.262 87.0505L249.721 86.7636C250.292 87.6777 250.852 88.5993 251.401 89.5284L250.935 89.8041C251.48 90.7263 252.015 91.6559 252.539 92.5926L253.012 92.3282C253.538 93.2686 254.053 94.2163 254.557 95.171L254.078 95.424C254.579 96.371 255.068 97.3251 255.546 98.2859L256.031 98.0445C256.512 99.0091 256.981 99.9805 257.439 100.959L256.948 101.188C257.402 102.158 257.845 103.134 258.277 104.117L258.773 103.899C259.206 104.886 259.629 105.879 260.039 106.878L259.538 107.084C259.945 108.074 260.341 109.07 260.725 110.072L261.231 109.878C261.617 110.884 261.991 111.897 262.353 112.915L261.843 113.096C262.202 114.104 262.549 115.118 262.885 116.138L263.4 115.968C263.737 116.992 264.062 118.021 264.376 119.055L263.857 119.212C264.168 120.236 264.466 121.265 264.753 122.299L265.275 122.155C265.563 123.193 265.839 124.236 266.103 125.285L265.578 125.417C265.839 126.454 266.088 127.496 266.325 128.543L266.853 128.424C267.091 129.474 267.318 130.53 267.531 131.59L267 131.697C267.212 132.745 267.411 133.798 267.599 134.855L268.132 134.761C268.32 135.821 268.496 136.886 268.659 137.955L268.124 138.037C268.285 139.094 268.435 140.155 268.572 141.22L269.11 141.151C269.247 142.219 269.373 143.29 269.486 144.366L268.947 144.422C269.059 145.486 269.158 146.553 269.245 147.624L269.785 147.58C269.873 148.653 269.948 149.729 270.01 150.808L269.469 150.839C269.531 151.907 269.581 152.979 269.618 154.053L270.16 154.035Z" stroke="#FDAC11" stroke-opacity="0.4" stroke-width="1.08333" stroke-dasharray="3.25 3.25"/>
</g>
</g>
</svg>
